<svg width="200" height="24" viewBox="0 0 200 24" fill="none" xmlns="http://www.w3.org/2000/svg">
<path fill-rule="evenodd" clip-rule="evenodd" d="M95.4024 19.4861V21.006H99.4178V0.180113H95.1631V6.81983H94.578C93.9399 5.96642 92.5038 4.84643 90.3234 4.84643C85.5368 4.84643 82.266 8.49976 82.266 13.1663C82.266 17.8329 85.5368 21.4594 90.3234 21.4594C92.5038 21.4594 94.2057 20.3394 94.8172 19.4861H95.4024ZM70.7783 4.84643C65.4599 4.84643 62.1625 8.49976 62.1625 13.1663C62.1625 17.8329 65.4599 21.4594 70.7783 21.4594C76.0967 21.4594 79.3941 17.8329 79.3941 13.1663C79.3941 8.49976 76.0967 4.84643 70.7783 4.84643ZM115.985 19.4861V21.006H120V5.29988H115.985V6.81983H115.399C114.761 5.96642 113.139 4.84643 110.959 4.84643C106.172 4.84643 102.901 8.49976 102.901 13.1663C102.901 17.8329 106.172 21.4594 110.959 21.4594C113.139 21.4594 114.761 20.3394 115.399 19.4861H115.985ZM2.61295 0L0 20.9752L4.26733 21.5L6.83905 0.520206L2.61295 0ZM70.7783 17.4596C67.5607 17.4596 66.4971 16.3928 66.4971 13.1663C66.4971 9.93971 67.5607 8.84634 70.7783 8.84634C73.996 8.84634 75.0595 9.93971 75.0595 13.1663C75.0595 16.3928 73.996 17.4596 70.7783 17.4596ZM90.8818 17.4596C87.6641 17.4596 86.6004 16.3928 86.6004 13.1663C86.6004 9.93971 87.6641 8.84634 90.8818 8.84634C94.0993 8.84634 95.1631 9.93971 95.1631 13.1663C95.1631 16.3928 94.0993 17.4596 90.8818 17.4596ZM111.517 17.4596C108.3 17.4596 107.236 16.3928 107.236 13.1663C107.236 9.93971 108.3 8.84634 111.517 8.84634C114.735 8.84634 115.798 9.93971 115.798 13.1663C115.798 16.3928 114.735 17.4596 111.517 17.4596ZM20.7377 22.0646L20.5515 23.5045L24.5644 24L26.4665 8.43666L22.4542 7.94375L22.2675 9.45167H21.8037C21.2027 8.3872 19.5943 6.94509 16.5627 6.94509C12.3346 6.94509 9.22347 10.0648 8.66483 14.3316C8.61174 14.7582 8.58519 15.1847 8.58519 15.5847C8.58519 19.6646 11.3507 23.0246 15.6586 23.5045C15.898 23.5313 16.1372 23.5313 16.3766 23.5313C18.1849 23.5313 19.5412 22.758 20.2323 22.0646H20.7377ZM13.9566 18.7579C13.1855 18.198 12.8399 17.3714 12.8399 16.1181C12.8399 14.545 13.3186 12.5982 14.1163 11.7715C14.6747 11.2117 15.4725 10.945 16.5627 10.945C18.1051 10.945 19.9931 11.3449 20.7908 12.1715C21.3226 12.7049 21.5621 13.4516 21.5621 14.4914C21.5621 15.9848 21.1366 18.0914 20.2058 18.9712C19.6739 19.4514 18.956 19.6646 17.9454 19.6646C16.5643 19.6646 14.8304 19.3422 13.9566 18.7579ZM54.4242 21.006H58.7322V12.0731C58.7322 7.35314 55.7273 4.84643 52.1108 4.84643C49.7174 4.84643 47.9092 5.88657 46.6062 7.32639H46.0212C45.0374 6.04655 43.3354 4.84643 40.8091 4.84643C38.5223 4.84643 36.6875 5.85981 35.7301 7.03305H35.1452V5.29988H31.1297V21.006H35.411V12.793C35.411 9.99309 36.2354 9.03321 39.1075 9.03321C41.9792 9.03321 42.7771 9.99309 42.7771 12.793V21.006H47.0848V12.793C47.0848 9.99309 47.8826 9.03321 50.7546 9.03321C53.6265 9.03321 54.4242 9.99309 54.4242 12.793V21.006Z" fill="black"></path>
<path d="M132 17.4087C132.54 20.5652 134.758 22 138.085 22C141.862 22 143.78 20.1826 143.78 17.5681C143.78 15.113 142.491 13.7101 139.374 13.1043L137.545 12.7536C135.867 12.4348 134.848 12.0203 134.848 10.5855C134.848 9.27826 136.047 8.38551 137.965 8.38551C140.183 8.38551 141.173 9.53333 141.562 11.0319L143.75 10.5217C143.361 8.1942 141.502 6.18551 138.025 6.18551C134.698 6.18551 132.51 7.90725 132.51 10.6493C132.51 13.2957 134.098 14.4435 136.766 14.9536L138.625 15.3043C140.693 15.687 141.442 16.2928 141.442 17.6319C141.442 18.971 140.333 19.8 138.145 19.8C135.987 19.8 134.728 18.9072 134.248 16.9942L132 17.4087Z" fill="black"></path>
<path d="M159.413 14.6348C159.443 14.3478 159.443 13.8377 159.443 13.2957C159.443 8.83188 156.925 6.18551 153.178 6.18551C149.431 6.18551 146.434 8.8 146.434 14.0928C146.434 19.3855 149.221 22 152.968 22C156.356 22 158.484 20.0232 159.083 17.4406L156.955 16.9623C156.476 18.429 155.247 19.8 152.968 19.8C150.45 19.8 148.892 18.0464 148.742 14.6348H159.413ZM153.178 8.35362C155.696 8.35362 157.105 10.2029 157.165 12.6261H148.832C149.221 9.7884 150.84 8.35362 153.178 8.35362Z" fill="black"></path>
<path d="M162.876 21.6812H165.274V0H162.876V21.6812Z" fill="black"></path>
<path d="M169.785 21.6812H172.183V0H169.785V21.6812Z" fill="black"></path>
<path d="M188.803 14.6348C188.833 14.3478 188.833 13.8377 188.833 13.2957C188.833 8.83188 186.315 6.18551 182.568 6.18551C178.821 6.18551 175.824 8.8 175.824 14.0928C175.824 19.3855 178.612 22 182.358 22C185.746 22 187.874 20.0232 188.473 17.4406L186.345 16.9623C185.866 18.429 184.637 19.8 182.358 19.8C179.841 19.8 178.282 18.0464 178.132 14.6348H188.803ZM182.568 8.35362C185.086 8.35362 186.495 10.2029 186.555 12.6261H178.222C178.612 9.7884 180.23 8.35362 182.568 8.35362Z" fill="black"></path>
<path d="M192.266 21.6812H194.694V11.6377C194.694 9.75652 197.002 8.95942 198.921 8.95942H200V6.50435H198.711C197.302 6.50435 195.504 6.95072 194.544 8.70435V6.50435H192.266V21.6812Z" fill="black"></path>
</svg>